<?xml version="1.0" encoding="UTF-8"?>
<svg id="Layer_2" data-name="Layer 2" xmlns="http://www.w3.org/2000/svg" xmlns:xlink="http://www.w3.org/1999/xlink" viewBox="0 0 5000 5000">
  <defs>
    <style>
      .cls-1 {
        fill: url(#linear-gradient-2);
      }

      .cls-2 {
        fill: url(#linear-gradient-17);
      }

      .cls-3 {
        fill: url(#linear-gradient-15);
      }

      .cls-4 {
        fill: url(#linear-gradient-14);
      }

      .cls-5 {
        fill: url(#linear-gradient-6);
      }

      .cls-6 {
        fill: url(#linear-gradient-11);
      }

      .cls-7 {
        fill: url(#linear-gradient-10);
      }

      .cls-8 {
        fill: url(#linear-gradient-16);
      }

      .cls-9 {
        fill: url(#linear-gradient-5);
      }

      .cls-10 {
        fill: url(#linear-gradient-7);
      }

      .cls-11 {
        fill: url(#linear-gradient-9);
      }

      .cls-12 {
        fill: url(#linear-gradient-3);
      }

      .cls-13 {
        fill: url(#linear-gradient);
      }

      .cls-14 {
        fill: url(#linear-gradient-4);
      }

      .cls-15 {
        fill: url(#linear-gradient-8);
      }

      .cls-16 {
        fill: url(#linear-gradient-12);
      }

      .cls-17 {
        fill: url(#linear-gradient-13);
      }
    </style>
    <linearGradient id="linear-gradient" x1="-117.59" y1="-238.04" x2="2024.89" y2="1957.89" gradientUnits="userSpaceOnUse">
      <stop offset="0" stop-color="#000"/>
      <stop offset="1" stop-color="#000" stop-opacity="0"/>
    </linearGradient>
    <linearGradient id="linear-gradient-2" x1="2119.54" y1="-148.42" x2="2502.89" y2="2110.67" gradientUnits="userSpaceOnUse">
      <stop offset="0" stop-color="#000"/>
      <stop offset="1" stop-color="#000" stop-opacity="0"/>
    </linearGradient>
    <linearGradient id="linear-gradient-3" x1="2955.54" y1="-184.15" x2="2597.92" y2="2011.47" gradientUnits="userSpaceOnUse">
      <stop offset="0" stop-color="#000"/>
      <stop offset="1" stop-color="#000" stop-opacity="0"/>
    </linearGradient>
    <linearGradient id="linear-gradient-4" x1="4503.73" y1="-145.28" x2="2901.55" y2="2114.53" gradientUnits="userSpaceOnUse">
      <stop offset="0" stop-color="#000"/>
      <stop offset="1" stop-color="#000" stop-opacity="0"/>
    </linearGradient>
    <linearGradient id="linear-gradient-5" x1="5207.01" y1="119.46" x2="2767.45" y2="2236.23" gradientUnits="userSpaceOnUse">
      <stop offset="0" stop-color="#000"/>
      <stop offset="1" stop-color="#000" stop-opacity="0"/>
    </linearGradient>
    <linearGradient id="linear-gradient-6" x1="5350.71" y1="1165.24" x2="2805.51" y2="2328.89" gradientUnits="userSpaceOnUse">
      <stop offset="0" stop-color="#000"/>
      <stop offset="1" stop-color="#000" stop-opacity="0"/>
    </linearGradient>
    <linearGradient id="linear-gradient-7" x1="5277.02" y1="2503.46" x2="3074.42" y2="2499.59" xlink:href="#linear-gradient-6"/>
    <linearGradient id="linear-gradient-8" x1="5161.87" y1="3933.25" x2="2865.9" y2="2732.77" xlink:href="#linear-gradient-6"/>
    <linearGradient id="linear-gradient-9" x1="5133.48" y1="4746.51" x2="2620.3" y2="2740.53" xlink:href="#linear-gradient-6"/>
    <linearGradient id="linear-gradient-10" x1="-139.45" y1="1126.75" x2="2062.4" y2="2228.77" xlink:href="#linear-gradient-6"/>
    <linearGradient id="linear-gradient-11" x1="-97.23" y1="2166.82" x2="1934.9" y2="2337.45" xlink:href="#linear-gradient-6"/>
    <linearGradient id="linear-gradient-12" x1="-58.09" y1="2953.24" x2="2197.17" y2="2550.18" xlink:href="#linear-gradient-6"/>
    <linearGradient id="linear-gradient-13" x1="-48.98" y1="4247.01" x2="2217.56" y2="2728.48" xlink:href="#linear-gradient-6"/>
    <linearGradient id="linear-gradient-14" x1="-58" y1="5062.62" x2="2205.04" y2="2763.86" xlink:href="#linear-gradient-6"/>
    <linearGradient id="linear-gradient-15" x1="1109.48" y1="5169.12" x2="2275.6" y2="2813.82" xlink:href="#linear-gradient-6"/>
    <linearGradient id="linear-gradient-16" x1="2457.76" y1="5224.92" x2="2485.27" y2="2747.98" xlink:href="#linear-gradient-6"/>
    <linearGradient id="linear-gradient-17" x1="3894.85" y1="5124.07" x2="2689.19" y2="2780.26" xlink:href="#linear-gradient-6"/>
  </defs>
  <polygon class="cls-13" points="237.03 -124.15 2054 2003.84 -119 10.08 -40.43 -233 237.03 -124.15"/>
  <polygon class="cls-1" points="2053.99 -178 2467.01 2112 2175.05 -178 2053.99 -178"/>
  <polygon class="cls-12" points="2684.69 -178 2601 2019.31 3221.3 -159.13 2684.69 -178"/>
  <polygon class="cls-14" points="4211.59 -56.54 2814.14 2131 4698 -96 4211.59 -56.54"/>
  <polygon class="cls-9" points="5113.97 96 2766 2261.14 5159 265.32 5113.97 96"/>
  <polygon class="cls-5" points="5161.46 1029 2848 2309.8 5178 1466.96 5161.46 1029"/>
  <polygon class="cls-10" points="5178 2159.09 2976 2500.58 5178 2847.48 5178 2159.09"/>
  <polygon class="cls-15" points="5100 3760.23 2848 2705.31 5100 4041.57 5100 3760.23"/>
  <polygon class="cls-11" points="5070.32 4651.23 2690.25 2670 5100 4846.14 5070.32 4651.23"/>
  <polygon class="cls-7" points="-104 919 2053.65 2229 -104 1369.99 -104 919"/>
  <polygon class="cls-6" points="-104 2085 1935.28 2410 -104 2247.5 -104 2085"/>
  <polygon class="cls-16" points="-81 2801.04 2210 2536.52 -81 3113.62 -81 2801.04"/>
  <polygon class="cls-17" points="-81 4030.52 2210.04 2723 -49.04 4485 -81 4030.52"/>
  <polygon class="cls-4" points="-83.47 4927 2220.19 2784 21.85 5143 -104 5069.81 -83.47 4927"/>
  <polygon class="cls-3" points="874 5151.27 2305.14 2825 1332.56 5212 874 5151.27"/>
  <polygon class="cls-8" points="2354.47 5212 2496.83 2705 2561.53 5195.36 2354.47 5212"/>
  <polygon class="cls-2" points="3596.45 5143 2658 2745.57 4181 5081.32 3596.45 5143"/>
</svg>